<svg width="288" height="60" viewBox="0 0 288 60" fill="none" xmlns="http://www.w3.org/2000/svg">
    <g filter="url(#filter0_b_867_1429)">
        <rect x="288" y="60" width="288" height="60" rx="30" transform="rotate(-180 288 60)" fill="white" fill-opacity="0.1"/>
        <rect x="287" y="59" width="286" height="58" rx="29" transform="rotate(-180 287 59)" stroke="url(#paint0_linear_867_1429)" stroke-opacity="0.1" stroke-width="2" style="mix-blend-mode:plus-lighter"/>
        <path d="M33.5879 39.7832L23.8053 30.0006L33.5879 20.218" stroke="#F8F8FF" stroke-width="3" stroke-linecap="round" stroke-linejoin="round"/>
        <path d="M72.2833 37V22.7H78.2233C79.1699 22.7 79.9966 22.8533 80.7033 23.16C81.4099 23.4667 81.9566 23.9 82.3433 24.46C82.7299 25.02 82.9233 25.68 82.9233 26.44C82.9233 27.1333 82.7299 27.7533 82.3433 28.3C81.9566 28.8333 81.4099 29.2533 80.7033 29.56C79.9966 29.8667 79.1699 30.02 78.2233 30.02H75.1833V29H78.4033C79.4299 29 80.3233 29.16 81.0833 29.48C81.8566 29.7867 82.4566 30.2333 82.8833 30.82C83.3233 31.3933 83.5433 32.08 83.5433 32.88C83.5433 33.6933 83.3299 34.4133 82.9033 35.04C82.4766 35.6667 81.8766 36.1533 81.1033 36.5C80.3299 36.8333 79.4299 37 78.4033 37H72.2833ZM74.9833 34.74H78.4233C79.1566 34.74 79.7366 34.5667 80.1633 34.22C80.5899 33.86 80.8033 33.36 80.8033 32.72C80.8033 32.1067 80.5899 31.6333 80.1633 31.3C79.7366 30.9533 79.1566 30.78 78.4233 30.78H74.7833V28.56H78.0833C78.7366 28.56 79.2499 28.4 79.6233 28.08C80.0099 27.7467 80.2033 27.2933 80.2033 26.72C80.2033 26.16 80.0099 25.7267 79.6233 25.42C79.2499 25.1133 78.7366 24.96 78.0833 24.96H74.9833V34.74ZM94.8194 37H92.4194V34.98L92.2994 34.66V30.88C92.2994 30.1733 92.0727 29.6267 91.6194 29.24C91.166 28.8533 90.546 28.66 89.7594 28.66C89.186 28.66 88.646 28.7733 88.1394 29C87.646 29.2133 87.2127 29.52 86.8394 29.92L85.4594 28.32C85.9927 27.7867 86.6394 27.3733 87.3994 27.08C88.1594 26.7733 88.986 26.62 89.8794 26.62C90.8527 26.62 91.7127 26.7867 92.4594 27.12C93.206 27.4533 93.786 27.9333 94.1994 28.56C94.6127 29.1733 94.8194 29.9267 94.8194 30.82V37ZM88.9994 37.32C88.226 37.32 87.546 37.18 86.9594 36.9C86.3727 36.62 85.9127 36.2333 85.5794 35.74C85.2594 35.2467 85.0994 34.6733 85.0994 34.02C85.0994 33.3267 85.2994 32.74 85.6994 32.26C86.0994 31.7667 86.666 31.3867 87.3994 31.12C88.146 30.8533 89.006 30.72 89.9794 30.72H92.5594V32.44H90.1794C89.4594 32.44 88.8794 32.5667 88.4394 32.82C87.9994 33.0733 87.7794 33.44 87.7794 33.92C87.7794 34.36 87.946 34.7067 88.2794 34.96C88.626 35.2133 89.0727 35.34 89.6194 35.34C90.1394 35.34 90.6127 35.2333 91.0394 35.02C91.466 34.7933 91.8127 34.4867 92.0794 34.1C92.346 33.7133 92.4994 33.2733 92.5394 32.78L93.2994 33.14C93.2994 33.9667 93.1194 34.6933 92.7594 35.32C92.3994 35.9467 91.8927 36.44 91.2394 36.8C90.5994 37.1467 89.8527 37.32 88.9994 37.32ZM104.884 33.68L106.524 35.28C106.004 35.9333 105.37 36.44 104.624 36.8C103.89 37.1467 103.05 37.32 102.104 37.32C101.064 37.32 100.13 37.0933 99.3038 36.64C98.4771 36.1733 97.8238 35.54 97.3438 34.74C96.8771 33.9267 96.6438 33.0067 96.6438 31.98C96.6438 30.94 96.8838 30.02 97.3638 29.22C97.8438 28.4067 98.4971 27.7733 99.3238 27.32C100.164 26.8533 101.11 26.62 102.164 26.62C103.084 26.62 103.91 26.8 104.644 27.16C105.377 27.5067 106.004 28 106.524 28.64L104.884 30.26C104.604 29.8333 104.244 29.4867 103.804 29.22C103.377 28.9533 102.877 28.82 102.304 28.82C101.73 28.82 101.224 28.9533 100.784 29.22C100.344 29.4867 99.9971 29.86 99.7438 30.34C99.4904 30.82 99.3638 31.3667 99.3638 31.98C99.3638 32.58 99.4904 33.12 99.7438 33.6C99.9971 34.08 100.344 34.4533 100.784 34.72C101.224 34.9867 101.73 35.12 102.304 35.12C102.89 35.12 103.397 34.9867 103.824 34.72C104.25 34.4533 104.604 34.1067 104.884 33.68ZM110.991 37H108.351V22.6H110.991V37ZM119.051 37H115.691L110.411 31.78H110.611L115.311 26.94H118.471L113.451 31.98V31.58L119.051 37ZM130.887 37H128.367C127.46 37 126.774 36.7733 126.307 36.32C125.854 35.8533 125.627 35.1667 125.627 34.26V24.28H128.267V33.8C128.267 34.16 128.347 34.4267 128.507 34.6C128.667 34.76 128.92 34.84 129.267 34.84H130.887V37ZM130.767 29.06H123.867V26.94H130.767V29.06ZM137.653 37.32C136.56 37.32 135.593 37.0933 134.753 36.64C133.913 36.1733 133.26 35.54 132.793 34.74C132.326 33.9267 132.093 33.0067 132.093 31.98C132.093 30.9267 132.326 30 132.793 29.2C133.26 28.4 133.913 27.7733 134.753 27.32C135.593 26.8533 136.56 26.62 137.653 26.62C138.746 26.62 139.713 26.8533 140.553 27.32C141.393 27.7733 142.046 28.4 142.513 29.2C142.98 30 143.213 30.92 143.213 31.96C143.213 33 142.98 33.9267 142.513 34.74C142.046 35.54 141.393 36.1733 140.553 36.64C139.713 37.0933 138.746 37.32 137.653 37.32ZM137.653 35.12C138.213 35.12 138.706 34.9867 139.133 34.72C139.56 34.4533 139.893 34.0867 140.133 33.62C140.373 33.14 140.493 32.5933 140.493 31.98C140.493 31.3533 140.373 30.8067 140.133 30.34C139.893 29.86 139.56 29.4867 139.133 29.22C138.706 28.9533 138.213 28.82 137.653 28.82C137.093 28.82 136.6 28.9533 136.173 29.22C135.746 29.4867 135.413 29.86 135.173 30.34C134.933 30.8067 134.813 31.3533 134.813 31.98C134.813 32.5933 134.933 33.14 135.173 33.62C135.413 34.0867 135.746 34.4533 136.173 34.72C136.6 34.9867 137.093 35.12 137.653 35.12ZM162.314 37.9L156.674 32.16L158.214 30.64L163.834 36.38L162.314 37.9ZM156.554 37.32C155.447 37.32 154.427 37.1333 153.494 36.76C152.574 36.3867 151.767 35.8667 151.074 35.2C150.381 34.5333 149.847 33.7467 149.474 32.84C149.101 31.92 148.914 30.92 148.914 29.84C148.914 28.76 149.101 27.7667 149.474 26.86C149.847 25.9533 150.381 25.1667 151.074 24.5C151.767 23.8333 152.574 23.3133 153.494 22.94C154.427 22.5667 155.447 22.38 156.554 22.38C157.661 22.38 158.674 22.5667 159.594 22.94C160.527 23.3133 161.341 23.8333 162.034 24.5C162.727 25.1667 163.261 25.9533 163.634 26.86C164.007 27.7667 164.194 28.76 164.194 29.84C164.194 30.8933 164.001 31.88 163.614 32.8C163.241 33.7067 162.707 34.5 162.014 35.18C161.321 35.8467 160.507 36.3733 159.574 36.76C158.654 37.1333 157.647 37.32 156.554 37.32ZM156.554 34.94C157.514 34.94 158.354 34.7267 159.074 34.3C159.794 33.86 160.354 33.26 160.754 32.5C161.154 31.7267 161.354 30.84 161.354 29.84C161.354 28.8533 161.147 27.98 160.734 27.22C160.334 26.46 159.774 25.86 159.054 25.42C158.334 24.98 157.501 24.76 156.554 24.76C155.621 24.76 154.787 24.98 154.054 25.42C153.334 25.86 152.767 26.46 152.354 27.22C151.954 27.98 151.754 28.8533 151.754 29.84C151.754 30.8267 151.954 31.7067 152.354 32.48C152.767 33.24 153.334 33.84 154.054 34.28C154.787 34.72 155.621 34.94 156.554 34.94ZM175.999 37H173.379V35.08L173.359 34.52V26.94H175.999V37ZM173.499 32.8L174.039 33.16C174.066 33.9867 173.913 34.7133 173.579 35.34C173.259 35.9533 172.799 36.44 172.199 36.8C171.613 37.1467 170.919 37.32 170.119 37.32C168.933 37.32 167.993 36.9733 167.299 36.28C166.606 35.5733 166.259 34.5533 166.259 33.22V26.94H168.899V32.94C168.899 33.66 169.073 34.2067 169.419 34.58C169.779 34.94 170.266 35.12 170.879 35.12C171.319 35.12 171.726 35.0267 172.099 34.84C172.473 34.64 172.786 34.3667 173.039 34.02C173.293 33.66 173.446 33.2533 173.499 32.8ZM180.952 37H178.312V26.94H180.952V37ZM179.632 25.2C179.192 25.2 178.812 25.0533 178.492 24.76C178.186 24.4533 178.032 24.0867 178.032 23.66C178.032 23.2067 178.186 22.8333 178.492 22.54C178.812 22.2467 179.192 22.1 179.632 22.1C180.086 22.1 180.466 22.2533 180.772 22.56C181.079 22.8533 181.232 23.22 181.232 23.66C181.232 24.0867 181.079 24.4533 180.772 24.76C180.466 25.0533 180.086 25.2 179.632 25.2ZM191.773 37H182.893V34.88L188.293 29.06H183.093V26.94H191.573V29.06L186.173 34.88H191.773V37ZM201.153 33.68L202.793 35.28C202.273 35.9333 201.64 36.44 200.893 36.8C200.16 37.1467 199.32 37.32 198.373 37.32C197.333 37.32 196.4 37.0933 195.573 36.64C194.747 36.1733 194.093 35.54 193.613 34.74C193.147 33.9267 192.913 33.0067 192.913 31.98C192.913 30.94 193.153 30.02 193.633 29.22C194.113 28.4067 194.767 27.7733 195.593 27.32C196.433 26.8533 197.38 26.62 198.433 26.62C199.353 26.62 200.18 26.8 200.913 27.16C201.647 27.5067 202.273 28 202.793 28.64L201.153 30.26C200.873 29.8333 200.513 29.4867 200.073 29.22C199.647 28.9533 199.147 28.82 198.573 28.82C198 28.82 197.493 28.9533 197.053 29.22C196.613 29.4867 196.267 29.86 196.013 30.34C195.76 30.82 195.633 31.3667 195.633 31.98C195.633 32.58 195.76 33.12 196.013 33.6C196.267 34.08 196.613 34.4533 197.053 34.72C197.493 34.9867 198 35.12 198.573 35.12C199.16 35.12 199.667 34.9867 200.093 34.72C200.52 34.4533 200.873 34.1067 201.153 33.68ZM213.687 37H211.287V34.98L211.167 34.66V30.88C211.167 30.1733 210.94 29.6267 210.487 29.24C210.033 28.8533 209.413 28.66 208.627 28.66C208.053 28.66 207.513 28.7733 207.007 29C206.513 29.2133 206.08 29.52 205.707 29.92L204.327 28.32C204.86 27.7867 205.507 27.3733 206.267 27.08C207.027 26.7733 207.853 26.62 208.747 26.62C209.72 26.62 210.58 26.7867 211.327 27.12C212.073 27.4533 212.653 27.9333 213.067 28.56C213.48 29.1733 213.687 29.9267 213.687 30.82V37ZM207.867 37.32C207.093 37.32 206.413 37.18 205.827 36.9C205.24 36.62 204.78 36.2333 204.447 35.74C204.127 35.2467 203.967 34.6733 203.967 34.02C203.967 33.3267 204.167 32.74 204.567 32.26C204.967 31.7667 205.533 31.3867 206.267 31.12C207.013 30.8533 207.873 30.72 208.847 30.72H211.427V32.44H209.047C208.327 32.44 207.747 32.5667 207.307 32.82C206.867 33.0733 206.647 33.44 206.647 33.92C206.647 34.36 206.813 34.7067 207.147 34.96C207.493 35.2133 207.94 35.34 208.487 35.34C209.007 35.34 209.48 35.2333 209.907 35.02C210.333 34.7933 210.68 34.4867 210.947 34.1C211.213 33.7133 211.367 33.2733 211.407 32.78L212.167 33.14C212.167 33.9667 211.987 34.6933 211.627 35.32C211.267 35.9467 210.76 36.44 210.107 36.8C209.467 37.1467 208.72 37.32 207.867 37.32ZM222.131 26.76V29.16H221.591C220.964 29.16 220.424 29.2867 219.971 29.54C219.518 29.78 219.158 30.16 218.891 30.68C218.638 31.2 218.511 31.8733 218.511 32.7V37H215.871V26.94H218.491V30.2H218.171C218.291 29.3067 218.538 28.6133 218.911 28.12C219.298 27.6267 219.744 27.28 220.251 27.08C220.771 26.8667 221.278 26.76 221.771 26.76H222.131ZM234.149 37H231.529V34.62L231.509 34.48V32.04C231.509 31.3733 231.389 30.8067 231.149 30.34C230.909 29.86 230.569 29.4867 230.129 29.22C229.702 28.9533 229.209 28.82 228.649 28.82C228.089 28.82 227.589 28.9533 227.149 29.22C226.722 29.4867 226.389 29.86 226.149 30.34C225.922 30.8067 225.809 31.3533 225.809 31.98C225.809 32.58 225.936 33.12 226.189 33.6C226.442 34.08 226.789 34.4533 227.229 34.72C227.669 34.9867 228.182 35.12 228.769 35.12C229.262 35.12 229.716 35.0267 230.129 34.84C230.542 34.64 230.882 34.3667 231.149 34.02C231.416 33.66 231.582 33.2533 231.649 32.8L232.229 33.16C232.269 33.92 232.122 34.62 231.789 35.26C231.469 35.8867 230.996 36.3867 230.369 36.76C229.756 37.1333 229.009 37.32 228.129 37.32C227.196 37.32 226.342 37.0933 225.569 36.64C224.809 36.1867 224.202 35.56 223.749 34.76C223.309 33.96 223.089 33.0333 223.089 31.98C223.089 30.9133 223.309 29.98 223.749 29.18C224.202 28.38 224.809 27.7533 225.569 27.3C226.329 26.8467 227.176 26.62 228.109 26.62C228.882 26.62 229.549 26.7667 230.109 27.06C230.682 27.3533 231.142 27.76 231.489 28.28C231.849 28.8 232.069 29.3933 232.149 30.06H231.509V22.6H234.149V37ZM235.776 35.5L237.216 33.86C237.67 34.3133 238.21 34.6733 238.836 34.94C239.476 35.2067 240.13 35.34 240.796 35.34C241.41 35.34 241.896 35.2267 242.256 35C242.63 34.7733 242.816 34.4933 242.816 34.16C242.816 33.8133 242.65 33.56 242.316 33.4C241.996 33.2267 241.396 33.08 240.516 32.96C239.05 32.7467 237.976 32.4067 237.296 31.94C236.616 31.46 236.276 30.8 236.276 29.96C236.276 29.2933 236.463 28.7133 236.836 28.22C237.21 27.7133 237.73 27.32 238.396 27.04C239.063 26.76 239.816 26.62 240.656 26.62C241.656 26.62 242.536 26.78 243.296 27.1C244.07 27.42 244.73 27.84 245.276 28.36L243.836 30C243.423 29.5733 242.943 29.2333 242.396 28.98C241.863 28.7267 241.29 28.6 240.676 28.6C240.103 28.6 239.643 28.7067 239.296 28.92C238.963 29.1333 238.796 29.4 238.796 29.72C238.796 30 238.963 30.2133 239.296 30.36C239.63 30.5067 240.216 30.6333 241.056 30.74C242.496 30.9533 243.576 31.3067 244.296 31.8C245.016 32.2933 245.376 33.0067 245.376 33.94C245.376 34.62 245.176 35.22 244.776 35.74C244.376 36.2467 243.823 36.64 243.116 36.92C242.423 37.1867 241.61 37.32 240.676 37.32C239.676 37.32 238.756 37.1533 237.916 36.82C237.076 36.4867 236.363 36.0467 235.776 35.5Z" fill="#F8F8FF"/>
    </g>
    <defs>
        <filter id="filter0_b_867_1429" x="-15" y="-15" width="318" height="90" filterUnits="userSpaceOnUse" color-interpolation-filters="sRGB">
            <feFlood flood-opacity="0" result="BackgroundImageFix"/>
            <feGaussianBlur in="BackgroundImageFix" stdDeviation="7.5"/>
            <feComposite in2="SourceAlpha" operator="in" result="effect1_backgroundBlur_867_1429"/>
            <feBlend mode="normal" in="SourceGraphic" in2="effect1_backgroundBlur_867_1429" result="shape"/>
        </filter>
        <linearGradient id="paint0_linear_867_1429" x1="288" y1="60" x2="576" y2="119.999" gradientUnits="userSpaceOnUse">
            <stop/>
            <stop offset="1" stop-color="white"/>
        </linearGradient>
    </defs>
</svg>
