<svg width="214" height="132" viewBox="0 0 214 132" fill="none" xmlns="http://www.w3.org/2000/svg">
    <path d="M27.128 25.056L32.216 30.384C30.648 32.4 28.68 33.968 26.312 35.088C23.976 36.208 21.48 36.768 18.824 36.768C16.264 36.768 13.912 36.336 11.768 35.472C9.624 34.576 7.768 33.344 6.2 31.776C4.632 30.176 3.416 28.272 2.552 26.064C1.72 23.856 1.304 21.44 1.304 18.816C1.304 16.192 1.736 13.792 2.6 11.616C3.464 9.408 4.68 7.52 6.248 5.952C7.816 4.352 9.688 3.12 11.864 2.256C14.04 1.36 16.424 0.912 19.016 0.912C21.672 0.912 24.136 1.472 26.408 2.592C28.712 3.68 30.648 5.248 32.216 7.296L27.128 12.624C26.168 11.184 24.968 10.064 23.528 9.264C22.12 8.432 20.616 8.016 19.016 8.016C17.192 8.016 15.576 8.48 14.168 9.408C12.76 10.304 11.656 11.568 10.856 13.2C10.088 14.8 9.704 16.672 9.704 18.816C9.704 20.96 10.088 22.848 10.856 24.48C11.656 26.112 12.744 27.392 14.12 28.32C15.528 29.216 17.16 29.664 19.016 29.664C20.616 29.664 22.12 29.264 23.528 28.464C24.968 27.632 26.168 26.496 27.128 25.056ZM52.6899 11.088V18.24H51.1539C49.7139 18.24 48.5139 18.496 47.5539 19.008C46.6259 19.488 45.9219 20.272 45.4419 21.36C44.9939 22.416 44.7699 23.792 44.7699 25.488V36H36.9459V11.52H44.7219V19.536H43.8579C44.0499 17.232 44.5619 15.472 45.3939 14.256C46.2579 13.04 47.2499 12.208 48.3699 11.76C49.4899 11.312 50.5459 11.088 51.5379 11.088H52.6899ZM76.2129 28.272L79.9569 33.12C78.6769 34.304 77.1409 35.216 75.3489 35.856C73.5889 36.464 71.6849 36.768 69.6369 36.768C66.8529 36.768 64.4209 36.224 62.3409 35.136C60.2609 34.048 58.6289 32.528 57.4449 30.576C56.2929 28.624 55.7169 26.368 55.7169 23.808C55.7169 21.312 56.2609 19.088 57.3489 17.136C58.4369 15.152 59.9249 13.6 61.8129 12.48C63.7329 11.328 65.9089 10.752 68.3409 10.752C70.5489 10.752 72.5169 11.312 74.2449 12.432C75.9729 13.52 77.3329 15.024 78.3249 16.944C79.3169 18.864 79.8129 21.04 79.8129 23.472V23.76H72.2289V22.944C72.2289 20.864 71.8929 19.312 71.2209 18.288C70.5809 17.264 69.5569 16.752 68.1489 16.752C67.1569 16.752 66.3249 17.024 65.6529 17.568C64.9809 18.08 64.4689 18.848 64.1169 19.872C63.7969 20.896 63.6369 22.144 63.6369 23.616C63.6369 25.152 63.8609 26.448 64.3089 27.504C64.7569 28.528 65.4449 29.312 66.3729 29.856C67.3009 30.4 68.4689 30.672 69.8769 30.672C71.2529 30.672 72.4689 30.448 73.5249 30C74.5809 29.552 75.4769 28.976 76.2129 28.272ZM79.8129 26.016H60.4209V21.36H79.0449L79.8129 23.472V26.016ZM105.706 36H98.9375V30.96L98.5055 30.576V21.312C98.5055 19.808 98.0735 18.656 97.2095 17.856C96.3455 17.056 95.0975 16.656 93.4655 16.656C91.3215 16.656 89.2735 17.456 87.3215 19.056L83.4335 14.4C86.5055 11.968 90.1055 10.752 94.2335 10.752C96.5695 10.752 98.5855 11.184 100.282 12.048C102.01 12.88 103.338 14.08 104.266 15.648C105.226 17.184 105.706 19.024 105.706 21.168V36ZM91.6895 36.768C89.8655 36.768 88.2815 36.432 86.9375 35.76C85.5935 35.088 84.5375 34.144 83.7695 32.928C83.0335 31.712 82.6655 30.288 82.6655 28.656C82.6655 26.128 83.6895 24.176 85.7375 22.8C87.7855 21.392 90.6495 20.688 94.3295 20.688H98.9855V25.344H94.7615C93.4175 25.344 92.3455 25.616 91.5455 26.16C90.7775 26.704 90.3935 27.44 90.3935 28.368C90.3935 29.168 90.6975 29.84 91.3055 30.384C91.9455 30.896 92.7615 31.152 93.7535 31.152C94.6815 31.152 95.5295 30.928 96.2975 30.48C97.0655 30.032 97.6895 29.424 98.1695 28.656C98.6815 27.856 98.9695 26.96 99.0335 25.968L100.81 26.784C100.81 28.8 100.426 30.56 99.6575 32.064C98.9215 33.536 97.8655 34.688 96.4895 35.52C95.1455 36.352 93.5455 36.768 91.6895 36.768ZM125.803 36H119.851C117.419 36 115.627 35.392 114.475 34.176C113.323 32.96 112.747 31.104 112.747 28.608V5.472H120.571V27.072C120.571 28 120.731 28.656 121.051 29.04C121.403 29.392 121.995 29.568 122.827 29.568H125.803V36ZM125.611 17.808H109.243V11.52H125.611V17.808ZM149.525 28.272L153.269 33.12C151.989 34.304 150.453 35.216 148.661 35.856C146.901 36.464 144.997 36.768 142.949 36.768C140.165 36.768 137.733 36.224 135.653 35.136C133.573 34.048 131.941 32.528 130.757 30.576C129.605 28.624 129.029 26.368 129.029 23.808C129.029 21.312 129.573 19.088 130.661 17.136C131.749 15.152 133.237 13.6 135.125 12.48C137.045 11.328 139.221 10.752 141.653 10.752C143.861 10.752 145.829 11.312 147.557 12.432C149.285 13.52 150.645 15.024 151.637 16.944C152.629 18.864 153.125 21.04 153.125 23.472V23.76H145.541V22.944C145.541 20.864 145.205 19.312 144.533 18.288C143.893 17.264 142.869 16.752 141.461 16.752C140.469 16.752 139.637 17.024 138.965 17.568C138.293 18.08 137.781 18.848 137.429 19.872C137.109 20.896 136.949 22.144 136.949 23.616C136.949 25.152 137.173 26.448 137.621 27.504C138.069 28.528 138.757 29.312 139.685 29.856C140.613 30.4 141.781 30.672 143.189 30.672C144.565 30.672 145.781 30.448 146.837 30C147.893 29.552 148.789 28.976 149.525 28.272ZM153.125 26.016H133.733V21.36H152.357L153.125 23.472V26.016ZM160.586 43.536H155.882C158.858 40.08 160.346 36.752 160.346 33.552L161.21 36.624C159.834 36.624 158.682 36.192 157.754 35.328C156.858 34.432 156.41 33.296 156.41 31.92C156.41 30.544 156.858 29.424 157.754 28.56C158.65 27.664 159.802 27.216 161.21 27.216C162.586 27.216 163.706 27.68 164.57 28.608C165.466 29.536 165.914 30.72 165.914 32.16C165.914 34.08 165.45 36.032 164.522 38.016C163.594 40 162.282 41.84 160.586 43.536ZM0.0560001 75.592L3.608 70.888C4.568 71.848 5.72 72.616 7.064 73.192C8.44 73.768 9.976 74.056 11.672 74.056C12.792 74.056 13.704 73.896 14.408 73.576C15.112 73.224 15.464 72.76 15.464 72.184C15.464 71.544 15.144 71.064 14.504 70.744C13.896 70.392 12.744 70.088 11.048 69.832C7.688 69.352 5.192 68.472 3.56 67.192C1.96 65.88 1.16 64.12 1.16 61.912C1.16 60.312 1.608 58.904 2.504 57.688C3.4 56.472 4.632 55.512 6.2 54.808C7.768 54.104 9.56 53.752 11.576 53.752C13.784 53.752 15.832 54.12 17.72 54.856C19.64 55.56 21.272 56.584 22.616 57.928L18.872 62.632C17.976 61.608 16.92 60.824 15.704 60.28C14.488 59.704 13.192 59.416 11.816 59.416C10.792 59.416 9.96 59.592 9.32 59.944C8.712 60.296 8.408 60.76 8.408 61.336C8.408 61.72 8.504 62.04 8.696 62.296C8.92 62.52 9.336 62.712 9.944 62.872C10.584 63.032 11.544 63.224 12.824 63.448C16.344 63.992 18.872 64.92 20.408 66.232C21.976 67.512 22.76 69.32 22.76 71.656C22.76 73.288 22.296 74.712 21.368 75.928C20.44 77.144 19.128 78.088 17.432 78.76C15.768 79.432 13.784 79.768 11.48 79.768C9.24 79.768 7.08 79.4 5 78.664C2.952 77.896 1.304 76.872 0.0560001 75.592ZM42.6463 79H36.6943C34.2623 79 32.4703 78.392 31.3183 77.176C30.1663 75.96 29.5903 74.104 29.5903 71.608V48.472H37.4143V70.072C37.4143 71 37.5743 71.656 37.8943 72.04C38.2463 72.392 38.8383 72.568 39.6703 72.568H42.6463V79ZM42.4543 60.808H26.0863V54.52H42.4543V60.808ZM70.6299 79H62.8539V74.392L62.8059 73.048V54.52H70.6299V79ZM63.0459 69.016L64.5819 69.784C64.5819 71.8 64.2299 73.56 63.5259 75.064C62.8539 76.536 61.8779 77.688 60.5979 78.52C59.3179 79.352 57.7979 79.768 56.0379 79.768C53.4139 79.768 51.3179 78.936 49.7499 77.272C48.2139 75.576 47.4459 73.128 47.4459 69.928V54.52H55.2699V69.112C55.2699 70.488 55.5739 71.528 56.1819 72.232C56.7899 72.904 57.5899 73.24 58.5819 73.24C59.3179 73.24 59.9899 73.064 60.5979 72.712C61.2059 72.328 61.7339 71.816 62.1819 71.176C62.6299 70.536 62.9179 69.816 63.0459 69.016ZM93.6466 79V73.72L93.5986 73.24V66.616C93.5986 65.304 93.3906 64.184 92.9746 63.256C92.5586 62.296 91.9666 61.56 91.1986 61.048C90.4626 60.536 89.5986 60.28 88.6066 60.28C87.5506 60.28 86.6226 60.568 85.8226 61.144C85.0546 61.688 84.4466 62.456 83.9986 63.448C83.5826 64.408 83.3746 65.512 83.3746 66.76C83.3746 68.008 83.5986 69.128 84.0466 70.12C84.4946 71.08 85.1186 71.848 85.9186 72.424C86.7506 72.968 87.7106 73.24 88.7986 73.24C89.6306 73.24 90.3986 73.064 91.1026 72.712C91.8066 72.36 92.3986 71.864 92.8786 71.224C93.3586 70.584 93.6626 69.848 93.7906 69.016L95.5666 69.784C95.5666 71.608 95.2146 73.288 94.5106 74.824C93.8386 76.328 92.8306 77.528 91.4866 78.424C90.1746 79.32 88.5426 79.768 86.5906 79.768C84.5746 79.768 82.7026 79.224 80.9746 78.136C79.2786 77.048 77.9026 75.528 76.8466 73.576C75.8226 71.624 75.3106 69.352 75.3106 66.76C75.3106 64.136 75.8386 61.864 76.8946 59.944C77.9826 57.992 79.3906 56.472 81.1186 55.384C82.8786 54.296 84.7666 53.752 86.7826 53.752C88.5746 53.752 90.0786 54.12 91.2946 54.856C92.5106 55.592 93.4706 56.6 94.1746 57.88C94.8786 59.16 95.3106 60.616 95.4706 62.248H93.5986V44.44H101.423V79H93.6466ZM124.629 54.52H132.453L122.037 80.92C121.045 83.384 119.733 85.224 118.101 86.44C116.501 87.688 114.501 88.312 112.101 88.312H108.645V81.88H111.525C112.645 81.88 113.461 81.688 113.973 81.304C114.485 80.952 114.869 80.312 115.125 79.384L115.221 79.048L105.429 54.52H113.445L120.165 74.056H117.861L124.629 54.52ZM134.945 86.536H130.241C133.217 83.08 134.705 79.752 134.705 76.552L135.569 79.624C134.193 79.624 133.041 79.192 132.113 78.328C131.217 77.432 130.769 76.296 130.769 74.92C130.769 73.544 131.217 72.424 132.113 71.56C133.009 70.664 134.161 70.216 135.569 70.216C136.945 70.216 138.065 70.68 138.929 71.608C139.825 72.536 140.273 73.72 140.273 75.16C140.273 77.08 139.809 79.032 138.881 81.016C137.953 83 136.641 84.84 134.945 86.536ZM19.976 113.168L24.68 117.968C23.4 119.472 21.832 120.656 19.976 121.52C18.12 122.352 16.152 122.768 14.072 122.768C11.544 122.768 9.288 122.208 7.304 121.088C5.32 119.968 3.752 118.432 2.6 116.48C1.48 114.496 0.92 112.256 0.92 109.76C0.92 107.2 1.464 104.944 2.552 102.992C3.672 101.04 5.208 99.52 7.16 98.432C9.144 97.312 11.432 96.752 14.024 96.752C18.408 96.752 21.944 98.336 24.632 101.504L19.88 106.352C19.08 105.328 18.264 104.56 17.432 104.048C16.632 103.536 15.704 103.28 14.648 103.28C13.016 103.28 11.656 103.872 10.568 105.056C9.512 106.208 8.984 107.776 8.984 109.76C8.984 111.712 9.528 113.28 10.616 114.464C11.704 115.648 13.048 116.24 14.648 116.24C15.736 116.24 16.712 115.984 17.576 115.472C18.472 114.928 19.272 114.16 19.976 113.168ZM39.6178 122.768C37.0258 122.768 34.7378 122.224 32.7538 121.136C30.8018 120.016 29.2658 118.48 28.1458 116.528C27.0578 114.544 26.5138 112.288 26.5138 109.76C26.5138 107.2 27.0578 104.944 28.1458 102.992C29.2658 101.04 30.8018 99.52 32.7538 98.432C34.7378 97.312 37.0258 96.752 39.6178 96.752C42.2418 96.752 44.5298 97.312 46.4818 98.432C48.4658 99.52 50.0018 101.04 51.0898 102.992C52.2098 104.944 52.7698 107.2 52.7698 109.76C52.7698 112.288 52.2098 114.544 51.0898 116.528C50.0018 118.48 48.4658 120.016 46.4818 121.136C44.5298 122.224 42.2418 122.768 39.6178 122.768ZM39.6178 116.24C40.6418 116.24 41.5218 115.968 42.2578 115.424C43.0258 114.848 43.6178 114.08 44.0338 113.12C44.4818 112.128 44.7058 111.008 44.7058 109.76C44.7058 108.48 44.4818 107.36 44.0338 106.4C43.6178 105.44 43.0258 104.688 42.2578 104.144C41.5218 103.568 40.6418 103.28 39.6178 103.28C38.6258 103.28 37.7458 103.568 36.9778 104.144C36.2418 104.688 35.6498 105.44 35.2018 106.4C34.7858 107.36 34.5778 108.48 34.5778 109.76C34.5778 111.008 34.7858 112.128 35.2018 113.12C35.6498 114.08 36.2418 114.848 36.9778 115.424C37.7458 115.968 38.6258 116.24 39.6178 116.24ZM94.6715 122H86.8475V107.552C86.8475 106.112 86.5755 105.04 86.0315 104.336C85.5195 103.6 84.7995 103.232 83.8715 103.232C82.8795 103.232 81.9995 103.712 81.2315 104.672C80.4635 105.6 80.0795 107.12 80.0795 109.232V122H72.2555V107.552C72.2555 106.112 71.9995 105.04 71.4875 104.336C70.9755 103.6 70.2555 103.232 69.3275 103.232C68.3355 103.232 67.4555 103.712 66.6875 104.672C65.9195 105.6 65.5355 107.12 65.5355 109.232V122H57.7115V97.52H65.4875V102.416L65.1035 102.368C65.5195 100.864 66.1115 99.712 66.8795 98.912C67.6475 98.112 68.4795 97.552 69.3755 97.232C70.3035 96.912 71.1835 96.752 72.0155 96.752C73.8075 96.752 75.3115 97.28 76.5275 98.336C77.7435 99.36 78.5595 100.912 78.9755 102.992H78.3035C78.7515 101.328 79.4235 100.048 80.3195 99.152C81.2155 98.256 82.2075 97.632 83.2955 97.28C84.3835 96.928 85.4075 96.752 86.3675 96.752C88.9275 96.752 90.9435 97.632 92.4155 99.392C93.9195 101.152 94.6715 103.696 94.6715 107.024V122ZM108.286 131.312H100.462V97.52H108.238V105.248H106.606C106.766 103.648 107.198 102.208 107.902 100.928C108.638 99.648 109.614 98.64 110.83 97.904C112.078 97.136 113.55 96.752 115.246 96.752C117.294 96.752 119.166 97.296 120.862 98.384C122.59 99.472 123.966 100.992 124.99 102.944C126.046 104.896 126.574 107.168 126.574 109.76C126.574 112.352 126.046 114.624 124.99 116.576C123.966 118.528 122.59 120.048 120.862 121.136C119.166 122.224 117.31 122.768 115.294 122.768C113.342 122.768 111.694 122.32 110.35 121.424C109.038 120.528 108.03 119.328 107.326 117.824C106.654 116.288 106.318 114.608 106.318 112.784L108.094 112.016C108.254 112.848 108.558 113.584 109.006 114.224C109.486 114.864 110.078 115.36 110.782 115.712C111.486 116.064 112.254 116.24 113.086 116.24C114.206 116.24 115.166 115.968 115.966 115.424C116.766 114.848 117.39 114.08 117.838 113.12C118.286 112.128 118.51 111.008 118.51 109.76C118.51 108.512 118.302 107.392 117.886 106.4C117.47 105.408 116.878 104.64 116.11 104.096C115.374 103.52 114.462 103.232 113.374 103.232C112.382 103.232 111.502 103.488 110.734 104C109.966 104.512 109.358 105.248 108.91 106.208C108.494 107.168 108.286 108.304 108.286 109.616V131.312ZM150.932 114.272L154.676 119.12C153.396 120.304 151.86 121.216 150.068 121.856C148.308 122.464 146.404 122.768 144.356 122.768C141.572 122.768 139.14 122.224 137.06 121.136C134.98 120.048 133.348 118.528 132.164 116.576C131.012 114.624 130.436 112.368 130.436 109.808C130.436 107.312 130.98 105.088 132.068 103.136C133.156 101.152 134.644 99.6 136.532 98.48C138.452 97.328 140.628 96.752 143.06 96.752C145.268 96.752 147.236 97.312 148.964 98.432C150.692 99.52 152.052 101.024 153.044 102.944C154.036 104.864 154.532 107.04 154.532 109.472V109.76H146.948V108.944C146.948 106.864 146.612 105.312 145.94 104.288C145.3 103.264 144.276 102.752 142.868 102.752C141.876 102.752 141.044 103.024 140.372 103.568C139.7 104.08 139.188 104.848 138.836 105.872C138.516 106.896 138.356 108.144 138.356 109.616C138.356 111.152 138.58 112.448 139.028 113.504C139.476 114.528 140.164 115.312 141.092 115.856C142.02 116.4 143.188 116.672 144.596 116.672C145.972 116.672 147.188 116.448 148.244 116C149.3 115.552 150.196 114.976 150.932 114.272ZM154.532 112.016H135.14V107.36H153.764L154.532 109.472V112.016ZM173.896 122H167.944C165.512 122 163.72 121.392 162.568 120.176C161.416 118.96 160.84 117.104 160.84 114.608V91.472H168.664V113.072C168.664 114 168.824 114.656 169.144 115.04C169.496 115.392 170.088 115.568 170.92 115.568H173.896V122ZM173.704 103.808H157.336V97.52H173.704V103.808ZM197.619 114.272L201.363 119.12C200.083 120.304 198.547 121.216 196.755 121.856C194.995 122.464 193.091 122.768 191.043 122.768C188.259 122.768 185.827 122.224 183.747 121.136C181.667 120.048 180.035 118.528 178.851 116.576C177.699 114.624 177.123 112.368 177.123 109.808C177.123 107.312 177.667 105.088 178.755 103.136C179.843 101.152 181.331 99.6 183.219 98.48C185.139 97.328 187.315 96.752 189.747 96.752C191.955 96.752 193.923 97.312 195.651 98.432C197.379 99.52 198.739 101.024 199.731 102.944C200.723 104.864 201.219 107.04 201.219 109.472V109.76H193.635V108.944C193.635 106.864 193.299 105.312 192.627 104.288C191.987 103.264 190.963 102.752 189.555 102.752C188.563 102.752 187.731 103.024 187.059 103.568C186.387 104.08 185.875 104.848 185.523 105.872C185.203 106.896 185.043 108.144 185.043 109.616C185.043 111.152 185.267 112.448 185.715 113.504C186.163 114.528 186.851 115.312 187.779 115.856C188.707 116.4 189.875 116.672 191.283 116.672C192.659 116.672 193.875 116.448 194.931 116C195.987 115.552 196.883 114.976 197.619 114.272ZM201.219 112.016H181.827V107.36H200.451L201.219 109.472V112.016ZM209.256 122.624C207.88 122.624 206.744 122.192 205.848 121.328C204.952 120.432 204.504 119.296 204.504 117.92C204.504 116.544 204.952 115.424 205.848 114.56C206.744 113.664 207.88 113.216 209.256 113.216C210.632 113.216 211.768 113.664 212.664 114.56C213.56 115.424 214.008 116.544 214.008 117.92C214.008 119.296 213.56 120.432 212.664 121.328C211.768 122.192 210.632 122.624 209.256 122.624Z" fill="#FAF9FC"/>
</svg>
