<svg width="150" height="50" viewBox="0 0 245 87" fill="none" xmlns="http://www.w3.org/2000/svg">
    <rect y="5" width="245" height="82" rx="15" fill="#020EC7"/>
    <rect width="245" height="82" rx="15" fill="#0E22E9"/>
    <path
            d="M98.2729 44.984L100.385 47.168C99.6489 48.176 98.6969 48.968 97.5289 49.544C96.3609 50.104 95.1209 50.384 93.8089 50.384C92.5769 50.384 91.4409 50.168 90.4009 49.736C89.3609 49.288 88.4489 48.664 87.6649 47.864C86.8969 47.064 86.3049 46.112 85.8889 45.008C85.4729 43.904 85.2649 42.704 85.2649 41.408C85.2649 40.112 85.4729 38.92 85.8889 37.832C86.3209 36.728 86.9209 35.776 87.6889 34.976C88.4569 34.176 89.3689 33.56 90.4249 33.128C91.4969 32.68 92.6569 32.456 93.9049 32.456C95.2169 32.456 96.4329 32.736 97.5529 33.296C98.6889 33.84 99.6329 34.632 100.385 35.672L98.2729 37.856C97.7609 37.056 97.1209 36.44 96.3529 36.008C95.6009 35.576 94.7769 35.36 93.8809 35.36C92.8729 35.36 91.9689 35.616 91.1689 36.128C90.3849 36.64 89.7689 37.352 89.3209 38.264C88.8889 39.176 88.6729 40.224 88.6729 41.408C88.6729 42.592 88.8889 43.648 89.3209 44.576C89.7689 45.488 90.3849 46.2 91.1689 46.712C91.9529 47.224 92.8569 47.48 93.8809 47.48C94.7769 47.48 95.6009 47.264 96.3529 46.832C97.1209 46.4 97.7609 45.784 98.2729 44.984ZM110.408 37.712V40.64H109.76C109.04 40.64 108.416 40.792 107.888 41.096C107.36 41.384 106.952 41.84 106.664 42.464C106.376 43.072 106.232 43.872 106.232 44.864V50H103.064V37.904H106.208V41.84H105.824C105.952 40.752 106.232 39.912 106.664 39.32C107.112 38.712 107.624 38.296 108.2 38.072C108.792 37.832 109.36 37.712 109.904 37.712H110.408ZM121.941 46.304L123.597 48.296C122.957 48.984 122.197 49.504 121.317 49.856C120.453 50.208 119.517 50.384 118.509 50.384C117.181 50.384 116.021 50.112 115.029 49.568C114.037 49.024 113.261 48.272 112.701 47.312C112.157 46.336 111.885 45.224 111.885 43.976C111.885 42.744 112.149 41.64 112.677 40.664C113.205 39.688 113.933 38.92 114.861 38.36C115.789 37.8 116.837 37.52 118.005 37.52C119.093 37.52 120.061 37.792 120.909 38.336C121.757 38.88 122.421 39.632 122.901 40.592C123.397 41.536 123.645 42.616 123.645 43.832V43.976H120.549V43.664C120.549 42.496 120.325 41.6 119.877 40.976C119.429 40.352 118.781 40.04 117.933 40.04C117.357 40.04 116.853 40.192 116.421 40.496C116.005 40.8 115.677 41.248 115.437 41.84C115.213 42.416 115.101 43.104 115.101 43.904C115.101 44.72 115.237 45.424 115.509 46.016C115.781 46.608 116.173 47.064 116.685 47.384C117.213 47.704 117.861 47.864 118.629 47.864C119.333 47.864 119.957 47.728 120.501 47.456C121.061 47.184 121.541 46.8 121.941 46.304ZM123.645 44.912H113.925V42.872H123.261L123.645 43.832V44.912ZM136.421 50H133.637V47.552L133.493 47.192V42.656C133.493 41.808 133.245 41.152 132.749 40.688C132.253 40.224 131.557 39.992 130.661 39.992C129.493 39.992 128.421 40.456 127.445 41.384L125.789 39.464C127.245 38.168 128.965 37.52 130.949 37.52C132.069 37.52 133.037 37.728 133.853 38.144C134.669 38.56 135.301 39.144 135.749 39.896C136.197 40.648 136.421 41.544 136.421 42.584V50ZM129.821 50.384C128.925 50.384 128.149 50.224 127.493 49.904C126.837 49.568 126.325 49.104 125.957 48.512C125.589 47.92 125.405 47.232 125.405 46.448C125.405 45.2 125.893 44.232 126.869 43.544C127.861 42.84 129.221 42.488 130.949 42.488H133.709V44.504H131.165C130.349 44.504 129.709 44.664 129.245 44.984C128.781 45.304 128.549 45.752 128.549 46.328C128.549 46.824 128.733 47.232 129.101 47.552C129.485 47.872 129.973 48.032 130.565 48.032C131.141 48.032 131.661 47.904 132.125 47.648C132.589 47.376 132.965 47.016 133.253 46.568C133.541 46.104 133.709 45.576 133.757 44.984L134.573 45.392C134.573 46.384 134.373 47.256 133.973 48.008C133.573 48.744 133.013 49.328 132.293 49.76C131.589 50.176 130.765 50.384 129.821 50.384ZM146.472 50H143.616C142.544 50 141.744 49.728 141.216 49.184C140.688 48.624 140.424 47.792 140.424 46.688V34.736H143.592V46.136C143.592 46.568 143.68 46.888 143.856 47.096C144.032 47.288 144.32 47.384 144.72 47.384H146.472V50ZM146.352 40.496H138.504V37.904H146.352V40.496ZM158.199 46.304L159.855 48.296C159.215 48.984 158.455 49.504 157.575 49.856C156.711 50.208 155.775 50.384 154.767 50.384C153.439 50.384 152.279 50.112 151.287 49.568C150.295 49.024 149.519 48.272 148.959 47.312C148.415 46.336 148.143 45.224 148.143 43.976C148.143 42.744 148.407 41.64 148.935 40.664C149.463 39.688 150.191 38.92 151.119 38.36C152.047 37.8 153.095 37.52 154.263 37.52C155.351 37.52 156.319 37.792 157.167 38.336C158.015 38.88 158.679 39.632 159.159 40.592C159.655 41.536 159.903 42.616 159.903 43.832V43.976H156.807V43.664C156.807 42.496 156.583 41.6 156.135 40.976C155.687 40.352 155.039 40.04 154.191 40.04C153.615 40.04 153.111 40.192 152.679 40.496C152.263 40.8 151.935 41.248 151.695 41.84C151.471 42.416 151.359 43.104 151.359 43.904C151.359 44.72 151.495 45.424 151.767 46.016C152.039 46.608 152.431 47.064 152.943 47.384C153.471 47.704 154.119 47.864 154.887 47.864C155.591 47.864 156.215 47.728 156.759 47.456C157.319 47.184 157.799 46.8 158.199 46.304ZM159.903 44.912H150.183V42.872H159.519L159.903 43.832V44.912Z"
            fill="#F8F8FF"/>
</svg>