<svg width="20" height="17" viewBox="0 0 20 17" fill="none" xmlns="http://www.w3.org/2000/svg">
    <rect x="4" y="3" width="7" height="7" fill="#D9D9D9"/>
    <path d="M16.0003 0C16.1509 2.59566e-06 16.2995 0.0339971 16.435 0.0994482C16.5706 0.164899 16.6897 0.260117 16.7833 0.378L16.8573 0.486L19.8573 5.486C19.9556 5.64995 20.0048 5.83863 19.9991 6.02968C19.9934 6.22074 19.9331 6.40616 19.8253 6.564L19.7453 6.667L11.2153 16.2C11.0569 16.3616 10.8679 16.4899 10.6592 16.5775C10.4506 16.6651 10.2266 16.7101 10.0003 16.71C9.60031 16.71 9.21531 16.57 8.89031 16.293L8.75531 16.167L0.255308 6.667C0.127431 6.52432 0.0432378 6.3479 0.0127453 6.15874C-0.0177472 5.96958 0.00674504 5.77564 0.0833077 5.6L0.143308 5.485L3.15631 0.463L3.22031 0.373C3.26608 0.316061 3.31807 0.264408 3.37531 0.219L3.46431 0.155L3.55231 0.105L3.60231 0.0819998L3.66231 0.0570002L3.77131 0.0250001L3.88331 0.00500011L4.00031 0H16.0003ZM7.11431 3.943C6.88697 3.80686 6.6149 3.76652 6.35784 3.83083C6.10078 3.89514 5.87975 4.05885 5.74331 4.286L5.14331 5.286L5.08331 5.402C5.00677 5.57848 4.98276 5.77329 5.01415 5.96308C5.04555 6.15286 5.13102 6.32957 5.26031 6.472L7.26031 8.672L7.35031 8.76C7.53542 8.9184 7.77199 9.00377 8.01559 9.00009C8.25919 8.99641 8.49307 8.90392 8.67331 8.74L8.76031 8.65C8.91871 8.46489 9.00408 8.22832 9.0004 7.98472C8.99672 7.74112 8.90423 7.50724 8.74031 7.327L7.23931 5.677L7.45731 5.314L7.51231 5.211C7.6128 4.98758 7.62778 4.73505 7.55442 4.50132C7.48106 4.26759 7.32445 4.06892 7.11431 3.943Z" fill="#A55ADD"/>
    <path d="M10.0003 16.21H10.0006C10.1603 16.2101 10.3184 16.1783 10.4657 16.1165C10.6098 16.056 10.7406 15.968 10.8509 15.8574L19.3611 6.34655L19.4194 6.27145C19.4689 6.19488 19.4966 6.10615 19.4993 6.01485C19.5021 5.91941 19.4776 5.82517 19.4286 5.74325L10.0003 16.21ZM10.0003 16.21C9.72493 16.21 9.45725 16.1162 9.2226 15.9192L9.11292 15.8168L0.627929 6.3336L0.627654 6.3333C0.563716 6.26195 0.521619 6.17374 0.506373 6.07917C0.491895 5.98935 0.502208 5.89738 0.536065 5.81314L0.579717 5.72947L3.57506 0.736911L3.61773 0.676908C3.63616 0.655122 3.6565 0.635016 3.6785 0.616827L3.73454 0.576534L3.78071 0.5503L3.803 0.540044L3.82938 0.529053L3.88602 0.512425L3.93818 0.503112L4.01099 0.5H16.0003C16.0756 0.500001 16.1499 0.516998 16.2177 0.549725C16.2811 0.580327 16.3372 0.623944 16.3825 0.677672L16.4363 0.756172L19.4284 5.74301L10.0003 16.21ZM7.3713 3.5141L7.37119 3.51404C7.03019 3.30983 6.62208 3.24931 6.23649 3.34578C5.8509 3.44225 5.51936 3.68781 5.31469 4.02854L5.31456 4.02875L4.71456 5.02875C4.70915 5.03777 4.70403 5.04695 4.6992 5.05629L4.6392 5.17229C4.63398 5.18238 4.62911 5.19264 4.62459 5.20306C4.50978 5.46778 4.47377 5.76 4.52086 6.04468C4.56795 6.32936 4.69615 6.59441 4.89009 6.80806L4.89034 6.80834L6.89034 9.00834C6.89693 9.01559 6.90374 9.02265 6.91075 9.0295L7.00075 9.1175C7.00866 9.12524 7.01682 9.1327 7.02523 9.1399C7.30289 9.3775 7.65774 9.50556 8.02315 9.50004C8.38855 9.49451 8.73937 9.35578 9.00973 9.1099C9.01766 9.10268 9.02535 9.09522 9.0328 9.08751L9.1198 8.99751C9.12683 8.99024 9.13363 8.98276 9.1402 8.97508C9.37781 8.69742 9.50587 8.34256 9.50034 7.97716C9.49482 7.61176 9.35609 7.26094 9.1102 6.99058L9.11017 6.99054L7.85941 5.61562L7.88595 5.57142C7.89027 5.56423 7.89441 5.55692 7.89836 5.54952L7.95336 5.44652C7.95869 5.43655 7.96367 5.42641 7.9683 5.4161C8.11904 5.08098 8.14152 4.70218 8.03147 4.35158C7.92143 4.00098 7.68651 3.70298 7.3713 3.5141Z" stroke="white" stroke-opacity="0.3" stroke-linecap="round" stroke-linejoin="round"/>
</svg>
