<svg width="37" height="36" viewBox="0 0 37 36" fill="none" xmlns="http://www.w3.org/2000/svg">
    <path d="M23.5001 2.3335H25.3334C25.8196 2.3335 26.2859 2.52665 26.6298 2.87047C26.9736 3.21428 27.1667 3.6806 27.1667 4.16683V10.5835M32.6667 6.00016C33.1507 6.2055 33.6201 6.398 34.0747 6.57766C34.5223 6.76757 34.8761 7.12747 35.0583 7.5782C35.2405 8.02893 35.2362 8.53358 35.0464 8.98116L30.8334 18.8335M2.60736 8.19446L15.6937 2.49463C15.9096 2.40207 16.1419 2.35369 16.3768 2.35232C16.6118 2.35096 16.8446 2.39665 17.0616 2.4867C17.2786 2.57674 17.4754 2.70932 17.6403 2.87662C17.8053 3.04391 17.9351 3.24254 18.022 3.46079L27.0494 25.2811C27.237 25.7236 27.2434 26.2221 27.0671 26.6692C26.8909 27.1163 26.5461 27.4764 26.107 27.6718L13.0225 33.3716C12.8065 33.4645 12.574 33.5131 12.3389 33.5146C12.1038 33.5161 11.8707 33.4705 11.6535 33.3804C11.4363 33.2904 11.2393 33.1577 11.0742 32.9902C10.9092 32.8228 10.7793 32.6239 10.6924 32.4055L1.66502 10.5833C1.47739 10.1408 1.47101 9.64236 1.64725 9.19523C1.8235 8.7481 2.16828 8.3899 2.60736 8.19446Z" stroke="black" stroke-width="3" stroke-linecap="round" stroke-linejoin="round"/>
</svg>
