<svg width="222" height="196" viewBox="0 0 222 196" fill="none" xmlns="http://www.w3.org/2000/svg">
    <path d="M15.167 15C15.167 6.71574 21.8827 0 30.167 0H110.719H166.597C174.881 0 181.597 6.71573 181.597 15V19.8259C181.597 26.6394 187.12 32.1629 193.933 32.1629C200.747 32.1629 206.27 37.6863 206.27 44.4998V180.653C206.27 188.938 199.555 195.653 191.27 195.653H30.167C21.8827 195.653 15.167 188.938 15.167 180.653V15Z" fill="#E0E0FE"/>
    <path d="M2.89061 74.2149C1.9469 65.9102 8.44296 58.6342 16.8011 58.6342H204.636C212.994 58.6342 219.49 65.9102 218.547 74.2149L206.789 177.684C205.985 184.759 199.999 190.103 192.878 190.103H28.5589C21.4386 190.103 15.4524 184.759 14.6485 177.684L2.89061 74.2149Z" fill="#F8F8FF" stroke="#E0E0FE" stroke-width="2"/>
</svg>
