<svg width="44" height="44" viewBox="0 0 44 44" fill="none" xmlns="http://www.w3.org/2000/svg">
    <path d="M29.3331 27.5002C25.2815 29.944 18.7145 29.944 14.6665 27.5002M34.8332 15.9686L25.056 8.36389C24.198 7.69639 23.1419 7.33398 22.0549 7.33398C20.9678 7.33398 19.9117 7.69639 19.0537 8.36389L9.27468 15.9686C8.687 16.4256 8.21152 17.0109 7.88457 17.6797C7.55762 18.3485 7.38783 19.0833 7.38818 19.8277V33.0277C7.38818 34.0002 7.77449 34.9328 8.46213 35.6205C9.14976 36.3081 10.0824 36.6944 11.0549 36.6944H33.0549C34.0273 36.6944 34.9599 36.3081 35.6476 35.6205C36.3352 34.9328 36.7215 34.0002 36.7215 33.0277V19.8277C36.7215 18.3189 36.0249 16.8944 34.8332 15.9686Z" stroke="#0E22E9" stroke-width="3" stroke-linecap="round" stroke-linejoin="round"/>
</svg>
