<svg width="25" height="25" viewBox="0 0 34 34" fill="none"
     xmlns="http://www.w3.org/2000/svg">
    <rect width="34" height="34" rx="17" fill="#DBBEF4"/>
    <path
            d="M12.9522 15.0556V11.2778C12.9522 10.2758 13.3787 9.31496 14.1377 8.60649C14.8968 7.89801 15.9263 7.5 16.9998 7.5C18.0733 7.5 19.1029 7.89801 19.8619 8.60649C20.621 9.31496 21.0475 10.2758 21.0475 11.2778V15.0556M9.9165 16.9444C9.9165 16.4435 10.1297 15.963 10.5093 15.6088C10.8888 15.2546 11.4036 15.0556 11.9403 15.0556H22.0594C22.5961 15.0556 23.1109 15.2546 23.4904 15.6088C23.8699 15.963 24.0832 16.4435 24.0832 16.9444V22.6111C24.0832 23.1121 23.8699 23.5925 23.4904 23.9468C23.1109 24.301 22.5961 24.5 22.0594 24.5H11.9403C11.4036 24.5 10.8888 24.301 10.5093 23.9468C10.1297 23.5925 9.9165 23.1121 9.9165 22.6111V16.9444ZM15.9879 19.7778C15.9879 20.0283 16.0945 20.2685 16.2843 20.4456C16.4741 20.6227 16.7315 20.7222 16.9998 20.7222C17.2682 20.7222 17.5256 20.6227 17.7154 20.4456C17.9051 20.2685 18.0117 20.0283 18.0117 19.7778C18.0117 19.5273 17.9051 19.2871 17.7154 19.11C17.5256 18.9328 17.2682 18.8333 16.9998 18.8333C16.7315 18.8333 16.4741 18.9328 16.2843 19.11C16.0945 19.2871 15.9879 19.5273 15.9879 19.7778Z"
            stroke="#0B0E13" stroke-width="2" stroke-linecap="round"
            stroke-linejoin="round"/>
</svg>