<svg width="157" height="48" viewBox="0 0 157 48" fill="none" xmlns="http://www.w3.org/2000/svg">
    <path d="M12.1477 47.544C12.0197 47.672 11.8917 47.736 11.7637 47.736C11.4224 47.736 11.2517 47.288 11.2517 46.392C11.2517 45.7947 11.337 45.1547 11.5077 44.472C11.721 43.832 11.9984 43.3627 12.3397 43.064C13.1504 42.3387 14.217 41.7413 15.5397 41.272C16.905 40.8027 18.3557 40.4187 19.8917 40.12C18.953 39.864 18.1424 39.288 17.4597 38.392C16.8197 37.4533 16.4997 36.3867 16.4997 35.192C16.4997 33.784 16.841 32.1627 17.5237 30.328C18.249 28.4507 19.1877 26.488 20.3397 24.44C21.5344 22.392 22.8357 20.344 24.2437 18.296C25.6517 16.248 27.0597 14.328 28.4677 12.536C29.9184 10.744 31.241 9.18667 32.4357 7.864C29.6624 7.992 27.209 8.184 25.0757 8.44C22.985 8.65333 21.513 8.80266 20.6597 8.888C18.825 9.10133 16.9477 9.464 15.0277 9.976C13.1077 10.488 11.3157 11.1067 9.6517 11.832C8.03037 12.5147 6.7077 13.2613 5.6837 14.072C4.70237 14.84 4.2117 15.608 4.2117 16.376C4.2117 16.5893 4.3397 16.7813 4.5957 16.952C4.8517 17.1227 5.12904 17.208 5.4277 17.208C5.5557 17.336 5.6197 17.4427 5.6197 17.528C5.6197 17.7413 5.38504 17.8053 4.9157 17.72C4.44637 17.6347 3.84904 17.3573 3.1237 16.888C2.44104 16.376 1.82237 15.7787 1.2677 15.096C0.755703 14.4133 0.499703 13.816 0.499703 13.304C0.499703 12.4507 0.99037 11.6613 1.9717 10.936C2.9957 10.168 4.3397 9.48533 6.0037 8.888C7.71037 8.248 9.60904 7.71466 11.6997 7.288C13.7904 6.81867 15.9237 6.456 18.0997 6.2C19.721 5.98666 21.705 5.816 24.0517 5.688C26.3984 5.51733 28.8944 5.432 31.5397 5.432C32.0517 5.432 32.5637 5.45333 33.0757 5.496C33.5877 5.496 34.121 5.496 34.6757 5.496C34.4197 5.24 34.2917 4.94133 34.2917 4.6C34.2917 4.088 34.569 3.576 35.1237 3.064C35.6784 2.50933 36.297 1.99733 36.9797 1.528C37.705 1.05866 38.2597 0.674665 38.6437 0.375999C39.0277 0.375999 39.6037 0.482666 40.3717 0.695999C41.1397 0.909332 41.8437 1.18667 42.4837 1.528C43.1237 1.86933 43.4437 2.296 43.4437 2.808C43.4437 3.02133 43.401 3.256 43.3157 3.512C43.1877 3.81067 42.9317 4.17333 42.5477 4.6C42.2064 4.984 41.801 5.41066 41.3317 5.88C43.337 6.05066 45.1717 6.34933 46.8357 6.776C48.4997 7.16 49.865 7.65066 50.9317 8.248C51.9557 8.84533 52.553 9.4 52.7237 9.912C52.937 10.424 53.0224 10.8507 52.9797 11.192C52.937 11.5333 53.0224 11.7253 53.2357 11.768C53.7477 12.664 54.0037 13.5387 54.0037 14.392C54.0037 15.7147 53.4704 16.9947 52.4037 18.232C51.3797 19.4267 50.0357 20.536 48.3717 21.56C46.7077 22.5413 44.9584 23.416 43.1237 24.184C41.3317 24.9093 39.625 25.4853 38.0037 25.912C36.425 26.3387 35.1877 26.5947 34.2917 26.68C33.609 26.7227 32.585 26.872 31.2197 27.128C29.8544 27.3413 28.5957 27.5973 27.4437 27.896C27.0597 27.9813 26.6117 28.1093 26.0997 28.28C25.5877 28.4507 25.225 28.536 25.0117 28.536C24.457 28.536 24.009 28.4933 23.6677 28.408C23.3264 28.3227 23.1557 28.1947 23.1557 28.024C23.1557 27.7253 23.881 27.448 25.3317 27.192C27.1237 26.8933 29.257 26.4027 31.7317 25.72C34.249 25.0373 36.7877 24.1627 39.3477 23.096C41.9077 22.0293 44.233 20.792 46.3237 19.384C48.457 17.9333 50.057 16.3333 51.1237 14.584C51.6357 13.7733 51.8917 12.9627 51.8917 12.152C51.8917 11.0853 51.2944 10.2533 50.0997 9.656C48.905 9.016 47.3264 8.568 45.3637 8.312C43.4437 8.01333 41.353 7.84267 39.0917 7.8C37.8117 8.90933 36.3184 10.3387 34.6117 12.088C32.905 13.8373 31.1344 15.8 29.2997 17.976C27.5077 20.1093 25.8437 22.2853 24.3077 24.504C22.7717 26.7227 21.513 28.8773 20.5317 30.968C19.593 33.0587 19.1237 34.9147 19.1237 36.536C19.1237 37.3467 19.2517 38.0507 19.5077 38.648C19.7637 39.2027 20.361 39.48 21.2997 39.48V39.864C22.7077 39.6507 24.073 39.5013 25.3957 39.416C26.7184 39.288 27.8704 39.224 28.8517 39.224C29.1504 39.224 29.2997 39.3947 29.2997 39.736C29.2997 40.1627 29.129 40.376 28.7877 40.376C27.3797 40.376 25.673 40.6533 23.6677 41.208C21.6624 41.7627 19.6357 42.5733 17.5877 43.64C15.5397 44.7067 13.7264 46.008 12.1477 47.544ZM52.5587 43.832C51.364 43.832 50.5534 43.448 50.1267 42.68C49.7427 41.8693 49.6147 41.0587 49.7427 40.248C49.9134 39.1387 50.276 38.136 50.8307 37.24C51.428 36.344 52.0254 35.4907 52.6227 34.68C53.0494 34.1253 53.348 33.656 53.5187 33.272C53.732 32.888 53.668 32.6747 53.3267 32.632C53.1134 32.8027 52.772 32.9733 52.3027 33.144C51.8334 33.3147 51.364 33.4 50.8947 33.4C50.5107 33.4 50.148 33.3147 49.8067 33.144C49.4654 32.9733 49.2307 32.6747 49.1027 32.248C48.676 32.9307 48.2707 33.5707 47.8867 34.168C47.5027 34.7227 47.14 35.256 46.7987 35.768C46.1587 36.664 45.5614 37.5173 45.0067 38.328C44.452 39.096 43.7267 39.992 42.8307 41.016C42.532 41.3573 42.2547 41.528 41.9987 41.528C41.7427 41.528 41.6147 41.3787 41.6147 41.08C41.6147 40.9093 41.6787 40.7387 41.8067 40.568C42.788 39.3733 43.5987 38.3493 44.2387 37.496C44.8787 36.6 45.6254 35.5547 46.4787 34.36C47.332 33.08 48.0787 31.6507 48.7187 30.072C49.3587 28.4933 49.8707 27.0853 50.2547 25.848C50.6387 24.568 50.852 23.8 50.8947 23.544C52.004 23.9707 52.772 24.44 53.1987 24.952C53.668 25.464 53.9027 26.0187 53.9027 26.616C53.9027 27.4267 53.5187 28.2587 52.7507 29.112C52.0254 29.9653 51.172 30.7547 50.1907 31.48C50.5747 32.0347 51.0227 32.312 51.5347 32.312C52.0894 32.312 52.644 32.0773 53.1987 31.608C53.796 31.1387 54.244 30.7547 54.5427 30.456C55.2254 29.6027 55.972 29.176 56.7827 29.176C57.252 29.176 57.6574 29.3253 57.9987 29.624C58.3827 29.88 58.5747 30.2213 58.5747 30.648C58.5747 30.8613 58.5107 31.0747 58.3827 31.288C57.7427 32.1413 57.0174 33.1867 56.2067 34.424C55.396 35.6613 54.6494 36.8987 53.9667 38.136C53.3267 39.3307 52.8574 40.3547 52.5587 41.208C52.516 41.3787 52.4734 41.528 52.4307 41.656C52.4307 41.7413 52.4307 41.8267 52.4307 41.912C52.4307 42.2533 52.58 42.424 52.8787 42.424C53.092 42.424 53.348 42.3387 53.6467 42.168C53.9454 41.9973 54.18 41.8267 54.3507 41.656C55.1187 40.9733 56.0787 39.9067 57.2307 38.456C58.3827 37.0053 59.4494 35.6187 60.4307 34.296C61.028 33.4427 61.4334 33.016 61.6467 33.016C61.86 33.016 61.86 33.2933 61.6467 33.848C61.476 34.4027 61.156 35.0427 60.6867 35.768C60.0467 36.664 59.3 37.752 58.4467 39.032C57.636 40.2693 56.7187 41.3787 55.6947 42.36C54.7134 43.3413 53.668 43.832 52.5587 43.832ZM64.1312 43.832C63.1072 43.832 62.0832 43.5333 61.0592 42.936C60.0779 42.296 59.4592 41.1867 59.2032 39.608C59.1605 39.4373 59.1392 39.16 59.1392 38.776C59.1392 37.496 59.4805 36.1093 60.1632 34.616C60.8885 33.08 61.8059 31.6293 62.9152 30.264C64.0672 28.8987 65.2832 27.7893 66.5632 26.936C67.8432 26.0827 69.0592 25.656 70.2112 25.656C70.4672 25.9547 70.8725 26.168 71.4272 26.296C72.0245 26.424 72.5792 26.552 73.0912 26.68C73.6885 26.8507 74.1152 27.128 74.3712 27.512C74.6699 27.896 74.8192 28.3227 74.8192 28.792C74.8192 29.3467 74.6272 29.9653 74.2432 30.648C73.8592 31.288 73.3685 31.864 72.7712 32.376C71.7899 33.144 70.6592 33.912 69.3792 34.68C68.0992 35.4053 66.9259 36.1307 65.8592 36.856C64.8352 37.5387 64.1739 38.2213 63.8752 38.904C63.7899 39.1173 63.6619 39.224 63.4912 39.224C63.1925 39.224 63.1072 39.0533 63.2352 38.712C63.6619 37.432 64.4085 36.344 65.4752 35.448C66.5419 34.552 67.6512 33.72 68.8032 32.952C69.9979 32.1413 70.9579 31.288 71.6832 30.392C72.2379 29.7947 72.5152 29.24 72.5152 28.728C72.5152 28.1733 72.2165 27.896 71.6192 27.896C71.1072 27.896 70.5525 28.1093 69.9552 28.536C68.2485 29.688 66.6485 31.224 65.1552 33.144C63.6619 35.0213 62.6592 36.9627 62.1472 38.968C62.0192 39.48 61.9552 39.9493 61.9552 40.376C61.9552 41.1867 62.1685 41.7627 62.5952 42.104C63.0219 42.4027 63.5339 42.552 64.1312 42.552C64.6432 42.552 65.1765 42.4667 65.7312 42.296C66.2859 42.1253 66.7765 41.912 67.2032 41.656C67.8432 41.272 68.4832 40.7813 69.1232 40.184C69.7632 39.544 70.2965 38.968 70.7232 38.456C71.7045 37.2187 72.3872 36.6 72.7712 36.6C72.9845 36.6 72.9419 36.8987 72.6432 37.496C72.3872 38.0933 71.8325 38.9253 70.9792 39.992C70.1685 41.016 69.1872 41.912 68.0352 42.68C66.9259 43.448 65.6245 43.832 64.1312 43.832ZM92.2262 47.992C90.9462 47.992 90.0929 47.608 89.6662 46.84C89.2822 46.072 89.0902 45.3467 89.0902 44.664C89.0902 43.2133 89.4102 41.7413 90.0502 40.248C90.7329 38.712 91.4582 37.1973 92.2262 35.704C92.5675 35.064 92.9515 34.3387 93.3782 33.528C93.8049 32.7173 94.1675 31.9493 94.4662 31.224C94.7649 30.4987 94.9142 29.9653 94.9142 29.624C94.9142 29.24 94.7435 29.048 94.4022 29.048C93.8902 29.048 93.2715 29.4107 92.5462 30.136C91.8209 30.8613 91.0315 31.8 90.1782 32.952C89.3249 34.104 88.4929 35.2773 87.6822 36.472C86.9142 37.6667 86.2315 38.7547 85.6342 39.736C85.0795 40.7173 84.6955 41.4213 84.4822 41.848C84.0982 42.7013 83.5862 43.128 82.9462 43.128C82.2635 43.128 81.4955 42.6373 80.6422 41.656C81.0262 40.76 81.4955 39.6933 82.0502 38.456C82.6049 37.176 83.1382 35.896 83.6502 34.616C84.1622 33.2933 84.5249 32.1413 84.7382 31.16C84.7809 30.9467 84.8022 30.7547 84.8022 30.584C84.8449 30.4133 84.8662 30.2427 84.8662 30.072C84.8662 29.3893 84.6955 29.048 84.3542 29.048C84.0129 29.048 83.6075 29.2827 83.1382 29.752C82.5409 30.264 81.7942 31.0747 80.8982 32.184C80.0449 33.2933 79.1702 34.5093 78.2742 35.832C77.4209 37.112 76.6742 38.3493 76.0342 39.544C75.3942 40.7387 74.9889 41.72 74.8182 42.488C74.7755 42.872 74.4555 43.064 73.8582 43.064C73.3035 43.064 72.8129 42.8507 72.3862 42.424C71.9595 41.9973 71.7462 41.4213 71.7462 40.696C71.7462 40.5253 71.9169 40.0347 72.2582 39.224C72.5995 38.4133 73.0049 37.4533 73.4742 36.344C73.9862 35.2347 74.4769 34.1893 74.9462 33.208C75.4155 32.184 75.7782 31.3947 76.0342 30.84C75.7355 30.584 75.5862 30.3707 75.5862 30.2C75.6289 30.0293 75.6715 29.8587 75.7142 29.688L77.5702 26.296C77.6982 26.2107 78.1035 26.0613 78.7862 25.848C79.4689 25.592 80.0875 25.464 80.6422 25.464C81.3675 25.464 81.7302 25.72 81.7302 26.232C81.7302 26.5307 81.5809 26.9573 81.2822 27.512C81.1115 27.768 80.7702 28.344 80.2582 29.24C79.7462 30.136 79.1915 31.1387 78.5942 32.248C77.9969 33.3573 77.4635 34.36 76.9942 35.256C76.5675 36.152 76.3542 36.7067 76.3542 36.92C76.3542 37.0907 76.5249 36.92 76.8662 36.408C77.2502 35.896 77.6982 35.256 78.2102 34.488C78.7649 33.6773 79.2769 32.9093 79.7462 32.184C80.2582 31.416 80.6422 30.8827 80.8982 30.584C81.5382 29.816 82.0929 29.112 82.5622 28.472C83.0742 27.832 83.7355 27.512 84.5462 27.512C85.7835 27.512 86.7009 27.8107 87.2982 28.408C87.8955 29.0053 88.1942 29.688 88.1942 30.456C88.1942 31.1813 88.0022 32.056 87.6182 33.08C87.2342 34.104 86.8715 35 86.5302 35.768C86.8289 35.512 87.3409 34.8933 88.0662 33.912C88.7915 32.888 89.6022 31.8 90.4982 30.648C91.3942 29.496 92.2475 28.4933 93.0582 27.64C93.9115 26.7867 94.5942 26.36 95.1062 26.36C95.7889 26.36 96.4502 26.5307 97.0902 26.872C97.7302 27.2133 98.2422 27.64 98.6262 28.152C99.0529 28.664 99.2235 29.1973 99.1382 29.752C98.8395 31.2027 98.3275 32.4613 97.6022 33.528C96.8769 34.552 96.0235 35.768 95.0422 37.176C94.1889 38.4987 93.3355 39.928 92.4822 41.464C91.6289 43 91.2022 44.3867 91.2022 45.624C91.2022 45.9653 91.2449 46.264 91.3302 46.52C91.4582 46.8187 91.6289 46.968 91.8422 46.968C92.0555 46.968 92.3755 46.7973 92.8022 46.456C93.1435 46.2 93.4635 45.9013 93.7622 45.56C94.1035 45.2613 94.4235 45.0267 94.7222 44.856C94.9355 44.6427 95.0849 44.536 95.1702 44.536C95.4262 44.536 95.4475 44.728 95.2342 45.112C94.8929 45.88 94.4875 46.5413 94.0182 47.096C93.5489 47.6933 92.9515 47.992 92.2262 47.992ZM112.768 25.144C111.958 24.9733 111.211 24.5467 110.528 23.864C109.888 23.1813 109.654 22.4133 109.824 21.56C109.91 21.0907 110.08 20.792 110.336 20.664C110.592 20.536 111.062 20.4293 111.744 20.344C112.512 20.2587 113.024 20.1947 113.28 20.152C113.579 20.1093 113.856 20.0667 114.112 20.024C114.411 19.9387 114.944 19.832 115.712 19.704C115.883 19.6613 116.096 19.5547 116.352 19.384C116.608 19.2133 116.694 19.32 116.608 19.704C116.608 19.8747 116.459 20.088 116.16 20.344C115.904 20.5573 115.67 20.7067 115.456 20.792C114.987 21.0053 114.454 21.2613 113.856 21.56C113.302 21.8587 112.875 22.264 112.576 22.776C112.448 23.032 112.384 23.2667 112.384 23.48C112.384 24.0773 112.598 24.4187 113.024 24.504C113.11 24.504 113.152 24.568 113.152 24.696C113.152 24.7813 113.11 24.888 113.024 25.016C112.939 25.144 112.854 25.1867 112.768 25.144ZM104.832 43.896C103.254 43.896 102.144 43.4053 101.504 42.424C100.907 41.4427 100.608 40.2907 100.608 38.968C100.608 36.9627 100.971 35.2987 101.696 33.976C101.27 33.7627 101.163 33.5067 101.376 33.208C101.888 32.5253 102.486 31.7147 103.168 30.776C103.851 29.8373 104.512 28.984 105.152 28.216C105.835 27.448 106.39 27 106.816 26.872C106.944 26.8293 107.115 26.808 107.328 26.808C108.011 26.808 108.63 27.0427 109.184 27.512C109.782 27.9813 110.166 28.28 110.336 28.408C109.312 29.432 108.288 30.6053 107.264 31.928C106.283 33.2507 105.451 34.6587 104.768 36.152C104.086 37.6453 103.744 39.16 103.744 40.696C103.744 41.2507 103.851 41.656 104.064 41.912C104.278 42.1253 104.534 42.232 104.832 42.232C105.472 42.232 106.134 41.9333 106.816 41.336C107.584 40.6533 108.544 39.6507 109.696 38.328C110.891 36.9627 111.979 35.6187 112.96 34.296C113.558 33.4427 113.963 33.016 114.176 33.016C114.39 33.016 114.39 33.2933 114.176 33.848C114.006 34.4027 113.686 35.0427 113.216 35.768C112.619 36.5787 111.894 37.624 111.04 38.904C110.187 40.1413 109.27 41.2507 108.288 42.232C107.734 42.7867 107.136 43.192 106.496 43.448C105.899 43.7467 105.344 43.896 104.832 43.896ZM114.454 43.192C113.558 43.192 112.811 43 112.214 42.616C111.659 42.232 111.382 41.6987 111.382 41.016C111.382 40.0347 111.68 38.8827 112.278 37.56C112.875 36.1947 113.43 34.9787 113.942 33.912C113.899 33.784 113.835 33.656 113.75 33.528C113.707 33.3573 113.771 33.1653 113.942 32.952C115.008 31.3733 116.032 30.008 117.014 28.856C117.995 27.6613 118.699 27.064 119.126 27.064C119.51 27.064 120 27.2773 120.598 27.704C121.195 28.088 121.686 28.472 122.07 28.856C121.344 29.752 120.534 30.776 119.638 31.928C118.784 33.0373 117.995 34.1893 117.27 35.384C116.544 36.536 115.99 37.624 115.606 38.648C115.392 39.3733 115.286 39.8213 115.286 39.992C115.286 40.2907 115.371 40.44 115.542 40.44C115.84 40.44 116.331 40.0987 117.014 39.416C117.995 38.4347 119.062 37.1973 120.214 35.704C121.366 34.168 122.475 32.6533 123.542 31.16C124.608 29.6667 125.483 28.5147 126.166 27.704C126.678 27.064 127.211 26.744 127.766 26.744C128.235 26.744 128.683 26.9147 129.11 27.256C129.579 27.5973 130.027 28.024 130.454 28.536C129.856 29.304 129.11 30.3493 128.214 31.672C127.36 32.952 126.571 34.2747 125.846 35.64C125.12 37.0053 124.651 38.2 124.438 39.224C124.395 39.3947 124.352 39.5867 124.31 39.8C124.31 40.0133 124.31 40.2053 124.31 40.376C124.31 41.016 124.48 41.336 124.822 41.336C125.12 41.336 125.526 41.1013 126.038 40.632C126.678 40.0347 127.339 39.2667 128.022 38.328C128.704 37.3893 129.451 36.408 130.262 35.384C130.603 35 130.902 34.6373 131.158 34.296C131.456 33.912 131.755 33.528 132.054 33.144C132.694 32.3333 133.099 31.928 133.27 31.928C133.398 31.928 133.355 32.1627 133.142 32.632C132.971 33.1013 132.715 33.6347 132.374 34.232C132.032 34.8293 131.691 35.3627 131.35 35.832C130.966 36.4293 130.539 37.0907 130.07 37.816C129.6 38.4987 129.088 39.16 128.534 39.8C127.894 40.568 127.275 41.272 126.678 41.912C126.08 42.552 125.398 42.872 124.63 42.872C123.392 42.872 122.454 42.5733 121.814 41.976C121.216 41.3787 120.918 40.696 120.918 39.928C120.918 39.2027 121.11 38.328 121.494 37.304C121.92 36.28 122.283 35.384 122.582 34.616C122.283 34.872 121.792 35.4693 121.11 36.408C120.47 37.304 119.723 38.2853 118.87 39.352C118.059 40.376 117.248 41.272 116.438 42.04C115.627 42.808 114.966 43.192 114.454 43.192ZM149.664 47.992C148.384 47.992 147.53 47.608 147.104 46.84C146.72 46.072 146.528 45.3467 146.528 44.664C146.528 43.2133 146.848 41.7413 147.488 40.248C148.17 38.712 148.896 37.1973 149.664 35.704C150.005 35.064 150.389 34.3387 150.816 33.528C151.242 32.7173 151.605 31.9493 151.904 31.224C152.202 30.4987 152.352 29.9653 152.352 29.624C152.352 29.24 152.181 29.048 151.84 29.048C151.328 29.048 150.709 29.4107 149.984 30.136C149.258 30.8613 148.469 31.8 147.616 32.952C146.762 34.104 145.93 35.2773 145.12 36.472C144.352 37.6667 143.669 38.7547 143.072 39.736C142.517 40.7173 142.133 41.4213 141.92 41.848C141.536 42.7013 141.024 43.128 140.384 43.128C139.701 43.128 138.933 42.6373 138.08 41.656C138.464 40.76 138.933 39.6933 139.488 38.456C140.042 37.176 140.576 35.896 141.088 34.616C141.6 33.2933 141.962 32.1413 142.176 31.16C142.218 30.9467 142.24 30.7547 142.24 30.584C142.282 30.4133 142.304 30.2427 142.304 30.072C142.304 29.3893 142.133 29.048 141.792 29.048C141.45 29.048 141.045 29.2827 140.576 29.752C139.978 30.264 139.232 31.0747 138.336 32.184C137.482 33.2933 136.608 34.5093 135.712 35.832C134.858 37.112 134.112 38.3493 133.472 39.544C132.832 40.7387 132.426 41.72 132.256 42.488C132.213 42.872 131.893 43.064 131.296 43.064C130.741 43.064 130.25 42.8507 129.824 42.424C129.397 41.9973 129.184 41.4213 129.184 40.696C129.184 40.5253 129.354 40.0347 129.696 39.224C130.037 38.4133 130.442 37.4533 130.912 36.344C131.424 35.2347 131.914 34.1893 132.384 33.208C132.853 32.184 133.216 31.3947 133.472 30.84C133.173 30.584 133.024 30.3707 133.024 30.2C133.066 30.0293 133.109 29.8587 133.152 29.688L135.008 26.296C135.136 26.2107 135.541 26.0613 136.224 25.848C136.906 25.592 137.525 25.464 138.08 25.464C138.805 25.464 139.168 25.72 139.168 26.232C139.168 26.5307 139.018 26.9573 138.72 27.512C138.549 27.768 138.208 28.344 137.696 29.24C137.184 30.136 136.629 31.1387 136.032 32.248C135.434 33.3573 134.901 34.36 134.432 35.256C134.005 36.152 133.792 36.7067 133.792 36.92C133.792 37.0907 133.962 36.92 134.304 36.408C134.688 35.896 135.136 35.256 135.648 34.488C136.202 33.6773 136.714 32.9093 137.184 32.184C137.696 31.416 138.08 30.8827 138.336 30.584C138.976 29.816 139.53 29.112 140 28.472C140.512 27.832 141.173 27.512 141.984 27.512C143.221 27.512 144.138 27.8107 144.736 28.408C145.333 29.0053 145.632 29.688 145.632 30.456C145.632 31.1813 145.44 32.056 145.056 33.08C144.672 34.104 144.309 35 143.968 35.768C144.266 35.512 144.778 34.8933 145.504 33.912C146.229 32.888 147.04 31.8 147.936 30.648C148.832 29.496 149.685 28.4933 150.496 27.64C151.349 26.7867 152.032 26.36 152.544 26.36C153.226 26.36 153.888 26.5307 154.528 26.872C155.168 27.2133 155.68 27.64 156.064 28.152C156.49 28.664 156.661 29.1973 156.576 29.752C156.277 31.2027 155.765 32.4613 155.04 33.528C154.314 34.552 153.461 35.768 152.48 37.176C151.626 38.4987 150.773 39.928 149.92 41.464C149.066 43 148.64 44.3867 148.64 45.624C148.64 45.9653 148.682 46.264 148.768 46.52C148.896 46.8187 149.066 46.968 149.28 46.968C149.493 46.968 149.813 46.7973 150.24 46.456C150.581 46.2 150.901 45.9013 151.2 45.56C151.541 45.2613 151.861 45.0267 152.16 44.856C152.373 44.6427 152.522 44.536 152.608 44.536C152.864 44.536 152.885 44.728 152.672 45.112C152.33 45.88 151.925 46.5413 151.456 47.096C150.986 47.6933 150.389 47.992 149.664 47.992Z" fill="#A55ADD"/>
</svg>
