<svg width="231" height="54" viewBox="0 0 231 54" fill="none" xmlns="http://www.w3.org/2000/svg">
    <path d="M31.0414 41.5949L30.7323 42.5224L30.2545 43.9557L29.0741 47.3845H13.2512L14.4035 43.9557H8.1361L6.73087 48.1152C6.53386 48.6931 6.47609 49.3094 6.56225 49.9139C6.67077 50.5118 6.91076 51.0782 7.26487 51.5721C7.63815 52.0666 8.11858 52.4701 8.6701 52.7525C9.22256 53.0202 9.82684 53.1641 10.4407 53.174H29.6924C30.6981 53.1619 31.677 52.8487 32.5029 52.2747C33.3018 51.7108 33.9097 50.9166 34.2454 49.9982L37.0559 41.5668L31.0414 41.5949ZM17.1577 35.8334H10.9466L8.1361 43.9557H14.3191L17.1577 35.8334ZM40.9062 11.6072H30.3388L28.3996 17.3967H39.2761L32.9807 35.8334H39.0513L45.2343 17.6778C45.4481 16.9867 45.4963 16.255 45.3748 15.5418C45.2357 14.8339 44.9483 14.1635 44.5317 13.5745C44.1061 12.9847 43.5477 12.5034 42.9016 12.1693C42.283 11.8446 41.6033 11.6532 40.9062 11.6072ZM22.5819 11.6072C21.5754 11.614 20.595 11.9278 19.7715 12.5065C18.9733 13.059 18.3648 13.8441 18.029 14.7549L11.6773 33.4726H17.8603L23.4813 17.3967H25.8983L27.8656 11.6072H22.5819Z" fill="#FAF9FC"/>
    <path d="M33.9643 0H15.64C14.6335 0.00685523 13.653 0.320624 12.8295 0.899371C12.0306 1.46325 11.4228 2.25742 11.0871 3.17585L0.126227 35.4963C-0.0420758 36.1983 -0.0420758 36.9302 0.126227 37.6322C0.240428 38.3476 0.530094 39.0235 0.969356 39.5995C1.395 40.1893 1.9534 40.6707 2.59943 41.0048C3.23939 41.3481 3.95298 41.5313 4.67918 41.5388H28.3434V35.7773L33.8238 19.7014L34.6107 17.3406L36.6623 11.551L37.4493 9.19025L38.4892 6.07063C38.6713 5.37029 38.6713 4.63498 38.4892 3.93464C38.3686 3.21256 38.0797 2.52901 37.646 1.93923C37.1998 1.34701 36.6227 0.866052 35.9597 0.533996C35.3393 0.21834 34.6595 0.0364156 33.9643 0ZM30.3388 11.551L28.3996 17.3406L27.5845 19.7014L22.1884 35.8335H6.30925L16.5675 5.8177H32.3904L31.21 9.24643L30.3388 11.551Z" fill="#FAF9FC"/>
    <path d="M66.4252 48.063L63.7834 44.5218H61.3383C58.9271 44.6914 56.5321 44.0156 54.5651 42.6107C53.7247 41.6996 53.0912 40.6176 52.708 39.4388C52.3247 38.2601 52.2009 37.0124 52.3448 35.7813V18.9184C52.1124 16.4961 52.8502 14.0805 54.3964 12.2014C56.5166 10.6182 59.157 9.89535 61.788 10.1779C64.4046 9.91107 67.0275 10.6218 69.1514 12.1733C69.9255 13.105 70.5077 14.1807 70.8647 15.3382C71.2216 16.4958 71.3461 17.7125 71.2312 18.9184V34.9381C71.2623 36.1966 71.1965 37.4557 71.0344 38.7041C70.8933 39.9814 70.3523 41.1814 69.4887 42.1329L70.0789 42.8074L70.641 43.6225L71.456 44.7185C70.7253 45.1963 69.9102 45.7584 68.9828 46.3205L66.4252 48.063ZM62.322 38.9571C63.7272 38.9571 64.5422 38.4793 64.7952 37.7205C65.0795 36.7345 65.2122 35.711 65.1887 34.6852V17.8224C65.189 17.4746 65.07 17.1373 64.8514 16.8668C64.6546 16.5708 64.3694 16.3446 64.0363 16.2204C63.2826 15.8553 62.4568 15.6632 61.6193 15.6583C60.8376 15.6508 60.0659 15.8341 59.371 16.1923C59.0626 16.3457 58.8007 16.5786 58.6121 16.8668C58.4442 17.1571 58.3569 17.487 58.3592 17.8224V35.9218C58.3877 36.5183 58.511 37.1065 58.7246 37.6643C58.7959 37.9046 58.9208 38.1256 59.0899 38.3107C59.2678 38.5018 59.4897 38.6465 59.7363 38.7323C60.5784 38.958 61.4536 39.0341 62.322 38.9571Z" fill="#FAF9FC"/>
    <path d="M83.7659 44.6342C81.1494 44.8983 78.5276 44.1878 76.4025 42.6388C75.6125 41.7159 75.0182 40.6421 74.6559 39.4826C74.2936 38.3231 74.1706 37.1021 74.2946 35.8936V10.3464H80.3371L80.5057 35.8936V37.1021C80.5145 37.4116 80.5812 37.7166 80.7025 38.0015C81.0106 38.3699 81.4383 38.6186 81.911 38.7041C82.5531 38.8728 83.2144 38.9579 83.8783 38.9571C84.6037 38.9593 85.3248 38.8454 86.0143 38.6198C86.6888 38.3949 87.0541 38.0858 87.1385 37.6923V10.3464H93.0966V34.2073C93.1245 35.7105 93.04 37.2136 92.8437 38.7041C92.7156 39.865 92.3213 40.9807 91.6914 41.9642C90.9825 42.8969 89.9999 43.5847 88.8809 43.9316C87.2245 44.4379 85.4975 44.6751 83.7659 44.6342Z" fill="#FAF9FC"/>
    <path d="M106.025 44.6342V39.0133L116.508 15.9112H106.025V10.2903H123.084V15.9112L112.714 38.9852H123.141V44.6062L106.025 44.6342Z" fill="#FAF9FC"/>
    <path d="M135.507 44.6342C132.899 44.8993 130.285 44.1883 128.171 42.6388C127.381 41.7159 126.787 40.6421 126.425 39.4826C126.062 38.3231 125.939 37.1021 126.063 35.8936V19.0308C125.954 17.8382 126.081 16.6357 126.438 15.4925C126.795 14.3494 127.374 13.2881 128.143 12.37C130.255 10.7911 132.885 10.0684 135.507 10.3464C138.122 10.0864 140.741 10.8187 142.842 12.3981C144.42 14.3721 145.175 16.879 144.95 19.3961H138.963C139.019 18.629 139.019 17.8587 138.963 17.0915C138.934 16.8785 138.835 16.681 138.682 16.5295C138.536 16.3594 138.339 16.2411 138.12 16.1922C137.307 16.0292 136.476 15.9632 135.647 15.9955C134.842 15.9395 134.035 15.9395 133.23 15.9955C133.023 16.0258 132.828 16.1134 132.668 16.2484C132.515 16.4 132.417 16.5975 132.387 16.8105C132.316 17.5395 132.316 18.2737 132.387 19.0027V37.0178C132.438 37.3493 132.596 37.6551 132.837 37.889C133.069 38.1224 133.36 38.2877 133.68 38.3668C134.493 38.6477 135.348 38.7902 136.209 38.7884C137.053 38.8449 137.898 38.7104 138.682 38.3949C139.132 38.1139 139.357 37.3832 139.357 36.1747V35.2472C139.391 34.7794 139.391 34.3097 139.357 33.842H145.343C145.343 35.3631 145.259 36.8831 145.09 38.3949C144.976 39.594 144.581 40.7494 143.938 41.7675C143.242 42.7314 142.258 43.4497 141.128 43.8191C139.319 44.4307 137.414 44.7069 135.507 44.6342Z" fill="#FAF9FC"/>
    <path d="M147.17 44.6342V37.2708C147.159 34.1175 147.309 30.9656 147.62 27.8276C147.932 24.8028 148.622 21.8288 149.671 18.9747C150.868 15.845 152.536 12.9164 154.618 10.2903H158.468C160.598 12.9084 162.296 15.8495 163.499 19.0028C164.567 21.8916 165.266 24.904 165.579 27.9682C165.886 31.0594 166.036 34.1643 166.028 37.2708V44.6342H159.901V37.861H153.044V44.6342H147.17ZM153.156 32.2963H159.901C159.752 29.7994 159.404 27.3184 158.862 24.8766C158.355 22.4585 157.563 20.1093 156.501 17.8786C155.433 20.1124 154.622 22.4601 154.084 24.8766C153.55 27.3166 153.24 29.8001 153.156 32.2963Z" fill="#FAF9FC"/>
    <path d="M168.333 44.6341V10.2902H177.832C179.925 10.1799 182.015 10.5651 183.931 11.4144C184.63 11.8009 185.25 12.3158 185.758 12.932C186.242 13.5582 186.595 14.2749 186.798 15.0399C187.022 15.8859 187.164 16.7519 187.219 17.6255C187.219 18.6654 187.219 19.649 187.219 20.436V22.4595C187.224 23.811 187.158 25.1619 187.023 26.5066C186.914 27.7373 186.488 28.9187 185.786 29.9354C184.909 31.0182 183.69 31.7712 182.329 32.0713L187.276 44.5217H180.811L176.062 32.6615H174.291V44.5217L168.333 44.6341ZM174.376 27.2092C175.677 27.2767 176.981 27.2767 178.282 27.2092C179.009 27.2052 179.723 27.0218 180.362 26.6752C180.585 26.5046 180.775 26.2952 180.924 26.0569C181.059 25.8136 181.145 25.5463 181.177 25.27C181.317 24.3401 181.373 23.3995 181.345 22.4595V20.8013C181.345 20.0394 181.289 19.2785 181.177 18.5249C181.143 17.8737 180.896 17.2517 180.474 16.7543C180.105 16.4508 179.687 16.2131 179.238 16.0516C178.774 15.953 178.296 15.953 177.832 16.0516H174.376V27.2092Z" fill="#FAF9FC"/>
    <path d="M190.367 44.6343V10.2904H199.866C202.502 10.004 205.145 10.7605 207.23 12.3982C208.799 14.2889 209.557 16.7239 209.338 19.1715V34.9944C209.425 36.8079 209.058 38.6144 208.27 40.25C207.605 41.4733 206.573 42.4565 205.319 43.0605C203.972 43.6999 202.528 44.1085 201.047 44.269C199.321 44.47 197.585 44.5732 195.847 44.5781L190.367 44.6343ZM196.409 39.0134C197.743 39.046 199.077 38.9803 200.4 38.8167C200.823 38.7913 201.235 38.6763 201.609 38.4794C201.977 38.284 202.31 38.0274 202.592 37.7206C203.083 36.8681 203.317 35.8923 203.267 34.9101V19.8179C203.366 18.8391 203.149 17.8542 202.649 17.0074C202.42 16.7239 202.132 16.4937 201.806 16.3329C201.482 16.168 201.128 16.0723 200.766 16.0518C199.693 15.9249 198.614 15.8686 197.534 15.8832H196.438L196.409 39.0134Z" fill="#FAF9FC"/>
    <path d="M221.563 44.6343C219.801 44.6896 218.042 44.4424 216.364 43.9036C215.233 43.5342 214.249 42.8159 213.553 41.852C212.901 40.8359 212.496 39.6806 212.373 38.4794C212.2 36.9681 212.125 35.4473 212.148 33.9264H218.134V36.7369C218.085 37.3733 218.253 38.0077 218.612 38.5356C219.415 38.9562 220.326 39.1228 221.226 39.0134H222.125C222.8 39.0134 223.446 39.0134 224.093 38.7885C224.278 38.7607 224.453 38.683 224.598 38.5637C224.732 38.4541 224.83 38.3074 224.879 38.1421C225.02 37.6013 225.077 37.0421 225.048 36.484V32.0434C225.015 31.4394 224.94 30.8384 224.823 30.2447C224.823 29.9356 224.289 29.7388 223.615 29.6545C223.01 29.5658 222.399 29.5189 221.788 29.514H221.563C219.803 29.5751 218.045 29.3375 216.364 28.8114C215.241 28.457 214.258 27.759 213.553 26.8159C212.911 25.8385 212.515 24.7198 212.401 23.5558C212.233 22.0722 212.148 20.5803 212.148 19.0871C212.014 17.891 212.122 16.6801 212.465 15.5263C212.807 14.3725 213.378 13.2992 214.143 12.3701C216.266 10.8401 218.875 10.1403 221.479 10.4028C224.118 10.1248 226.763 10.8691 228.87 12.4825C230.43 14.4106 231.176 16.8707 230.95 19.3401H224.908C224.936 18.5307 224.88 17.7206 224.739 16.9231C224.711 16.7032 224.601 16.5022 224.43 16.361C224.271 16.2028 224.063 16.1036 223.84 16.08C223.059 15.9616 222.268 15.9145 221.479 15.9394C220.697 15.9125 219.915 15.969 219.146 16.1081C218.929 16.1332 218.724 16.2211 218.556 16.361C218.398 16.517 218.282 16.7103 218.219 16.9231C218.065 17.624 218.008 18.3427 218.05 19.0591V21.8695C218.073 22.3493 218.168 22.823 218.331 23.2748C218.331 23.2748 218.668 23.4996 219.23 23.612C219.982 23.7472 220.744 23.8131 221.507 23.8088C223.416 23.7153 225.324 23.992 227.128 24.6238C228.278 25.0303 229.264 25.7997 229.938 26.8159C230.517 27.8734 230.862 29.0426 230.95 30.2447C230.95 31.5656 230.95 33.0552 230.95 34.629V35.7813C231.078 36.9879 230.959 38.2078 230.602 39.3672C230.244 40.5266 229.655 41.6014 228.87 42.5265C226.766 44.0832 224.173 44.8314 221.563 44.6343Z" fill="#FAF9FC"/>
    <path d="M103.411 38.6197V44.5218C101.52 44.4713 99.6963 43.8108 98.2117 42.6387C97.4231 41.715 96.8298 40.6412 96.4675 39.4819C96.1052 38.3226 95.9815 37.102 96.1038 35.8936V19.0308H102.146L102.315 35.8936V37.1021C102.324 37.4116 102.39 37.7166 102.512 38.0014C102.735 38.3015 103.051 38.519 103.411 38.6197Z" fill="#FAF9FC"/>
    <path d="M99.1109 10.2622L95.6541 13.6629L99.1109 17.0635L102.568 13.6629L99.1109 10.2622Z" fill="#FAF9FC"/>
</svg>
